<?xml version="1.0" encoding="utf-8"?><!-- Uploaded to: SVG Repo, www.svgrepo.com, Generator: SVG Repo Mixer Tools -->
<svg fill="#000000" width="800px" height="800px" viewBox="0 0 24 24" id="approved-file-2" data-name="Flat Line" xmlns="http://www.w3.org/2000/svg" class="icon flat-line"><path id="secondary" d="M10,20.5A6.5,6.5,0,0,1,16.5,14a4.19,4.19,0,0,1,.5,0V5H15V3H4A1,1,0,0,0,3,4V20a1,1,0,0,0,1,1h6A4.19,4.19,0,0,1,10,20.5Z" style="fill: rgb(44, 169, 188); stroke-width: 2;"></path><polyline id="primary" points="15 19 17 21 21 17" style="fill: none; stroke: rgb(0, 0, 0); stroke-linecap: round; stroke-linejoin: round; stroke-width: 2;"></polyline><path id="primary-2" data-name="primary" d="M11,21H4a1,1,0,0,1-1-1V4A1,1,0,0,1,4,3H15l2,2V15" style="fill: none; stroke: rgb(0, 0, 0); stroke-linecap: round; stroke-linejoin: round; stroke-width: 2;"></path><path id="primary-3" data-name="primary" d="M7,13h3M7,9h6m2-6V5h2Z" style="fill: none; stroke: rgb(0, 0, 0); stroke-linecap: round; stroke-linejoin: round; stroke-width: 2;"></path></svg>